<?xml version="1.0" encoding="UTF-8"?>
<!DOCTYPE svg PUBLIC "-//W3C//DTD SVG 1.1//EN" "http://www.w3.org/Graphics/SVG/1.1/DTD/svg11.dtd">
<!-- Creator: CorelDRAW X6 -->
<svg xmlns="http://www.w3.org/2000/svg" xml:space="preserve" width="210mm" height="297mm" version="1.1" style="shape-rendering:geometricPrecision; text-rendering:geometricPrecision; image-rendering:optimizeQuality; fill-rule:evenodd; clip-rule:evenodd"
viewBox="0 0 21000 29700"
 xmlns:xlink="http://www.w3.org/1999/xlink">
 <defs>
  <style type="text/css">
   <![CDATA[
    .fil1 {fill:#48887B}
    .fil0 {fill:#F58634}
   ]]>
  </style>
 </defs>
 <g id="Capa_x0020_1">
  <metadata id="CorelCorpID_0Corel-Layer"/>
  <circle class="fil0" cx="10474" cy="14850" r="1216"/>
  <path class="fil1" d="M11627 14920c0,-33 -9,-60 -16,-85 -14,-42 -38,-81 -68,-114 -22,-24 -50,-46 -84,-63l-2 0c-36,-15 -76,-24 -118,-24l-2 0c-44,0 -85,10 -123,28l0 -164 381 0c35,111 54,230 54,353 0,81 -8,159 -24,235 0,-4 0,-8 0,-12 0,-16 0,-119 0,-153zm-1698 -648l-470 0c201,-355 583,-594 1020,-594 37,0 74,2 110,5l-569 778c-65,90 -139,212 -135,389 0,14 1,28 2,41 -37,-65 -95,-110 -155,-136l196 -275 0 -208zm-565 215l322 0 -173 238 0 205 0 0 2 0 93 0c32,0 60,10 80,31 22,23 32,55 34,99 -2,42 -12,73 -32,94l-2 2c-22,23 -46,34 -77,34 -29,0 -52,-8 -68,-24 -19,-18 -34,-42 -43,-72l-9 -23 -163 0c-14,-72 -21,-146 -21,-221 0,-127 20,-249 57,-363zm52 859c54,44 116,66 185,66 94,0 173,-34 233,-99 60,-60 91,-144 94,-247 88,221 298,378 550,378 224,0 419,-124 520,-307 18,91 56,161 115,205 61,47 131,70 206,70l0 0c55,0 106,-15 147,-41 41,-26 72,-54 95,-85 4,-5 8,-10 12,-16 -169,440 -595,751 -1094,751 -470,0 -876,-277 -1062,-676zm1062 -1764c-700,0 -1268,568 -1268,1268 0,700 568,1268 1268,1268 700,0 1268,-568 1268,-1268 0,-702 -584,-1268 -1268,-1268zm1020 690l-487 0 0 315c-87,-176 -259,-302 -462,-326 -5,-1 -10,-1 -14,-2l356 -506c258,97 473,282 608,519zm-434 672l137 0 0 0c6,-50 30,-93 109,-94 96,2 110,65 112,127l0 88c-2,62 -16,125 -112,127 -76,-2 -109,-39 -110,-127l0 0 -168 0c15,-38 26,-79 33,-120zm-586 -370c152,0 276,123 276,276 0,152 -123,276 -276,276 -152,0 -276,-123 -276,-276 0,-152 123,-276 276,-276z"/>
 </g>
</svg>
